<?xml version="1.0" encoding="UTF-8"?><svg id="bishop" xmlns="http://www.w3.org/2000/svg" viewBox="0 0 1200 1408.68"><defs><style>.cls-1,.cls-2{stroke-width:40px;}.cls-1,.cls-2,.cls-3{stroke:#000;stroke-miterlimit:10;}.cls-1,.cls-3{fill:#fff;}.cls-2{fill:none;}.cls-3{stroke-width:25px;}</style></defs><path class="cls-1" d="M329.33,1235.32c79.34-154.53,138.71-607.06,138.71-607.06h129.99s129.99,0,129.99,0c0,0,63.31,452.53,142.65,607.06H329.33Z"/><path class="cls-1" d="M438.8,593.14c-28.41-35.39,2.85-177.97,18.72-224.24,37.16-108.39,85.23-210.58,142.48-210.58s117.53,94.94,143.97,205.94c9.45,39.66,45.64,193.49,17.23,228.88,0,0,11.79,25.41-163.17,25.41s-159.23-25.41-159.23-25.41Z"/><path class="cls-3" d="M791.04,618.14c0,6.91-2.8,13.15-7.32,17.68-4.53,4.52-10.78,7.32-17.68,7.32h-332.08c-13.8,0-25-11.19-25-25,0-6.91,2.8-13.15,7.32-17.68,4.53-4.52,10.78-7.32,17.68-7.32h332.08c13.8,0,25,11.19,25,25Z"/><rect class="cls-1" x="287.65" y="1235.32" width="624.7" height="102.83" rx="30.4" ry="30.4"/><line class="cls-2" x1="718.95" y1="286.67" x2="592.23" y2="409.16"/></svg>