<?xml version="1.0" encoding="UTF-8"?><svg id="knight" xmlns="http://www.w3.org/2000/svg" viewBox="0 0 1200 1408.68"><defs><style>.cls-1{stroke-width:40px;}.cls-1,.cls-2,.cls-3{fill:#fff;stroke:#000;stroke-miterlimit:10;}.cls-2{stroke-width:24.08px;}.cls-3{stroke-width:40.37px;}</style></defs><path class="cls-1" d="M329.33,1235.32c18.75-61.33,19.49-116.73,8.13-163.55-29.12-120.04,47.28-227.19,101.34-255.41,95.48-49.84,29.23-188.11,29.23-188.11h129.99s136.65,0,136.65,0c0,0-150.19,109.16,135.99,607.06H329.33Z"/><path class="cls-3" d="M468.68,738.48c8.8-139.35-222.39-128.52-236.29-133.16s37.53-48,6.95-61.94-34.75-49.55-18.07-85.16c18.19-44.42,334.69-74.31,355.83-104.8l69-82.09c5.73-6.38,32.77,12.68,31.14,21.52l-12.72,68.82c-.57,3.08,1.59,5.92,4.4,5.84,9.1-.26,31.24,2.52,80.53,22.58,72.28,29.42,21.11,232.26,21.11,232.26l-47.26,124.31"/><path class="cls-2" d="M765.65,761.92c0,6.91-2.6,13.15-6.79,17.68-4.2,4.52-10,7.32-16.4,7.32h-308.06c-12.8,0-23.19-11.19-23.19-25,0-6.91,2.6-13.15,6.79-17.68,4.2-4.52,10-7.32,16.4-7.32h308.06c12.8,0,23.19,11.19,23.19,25Z"/><rect class="cls-1" x="287.65" y="1235.32" width="624.7" height="102.83" rx="30.4" ry="30.4"/></svg>