<?xml version="1.0" encoding="UTF-8"?><svg id="pawn" xmlns="http://www.w3.org/2000/svg" viewBox="0 0 1200 1200"><defs><style>.cls-1,.cls-2,.cls-3{fill:#fff;}.cls-2,.cls-4{stroke-width:40px;}.cls-2,.cls-4,.cls-3{stroke:#000;stroke-miterlimit:10;}.cls-4{fill:none;}.cls-3{stroke-width:25px;}</style></defs><path class="cls-1" d="M912.35,1057.04v42.04c0,16.71-13.68,30.39-30.4,30.39H318.05c-16.72,0-30.4-13.68-30.4-30.39v-42.04c0-16.72,13.68-30.4,30.4-30.4h11.28c67.59-118.42,120.69-431.36,134.93-521.45h-30.3c-13.8,0-25-11.19-25-25,0-6.91,2.8-13.15,7.32-17.68,4.53-4.52,10.78-7.32,17.68-7.32h4.84c-28.41-35.39-45.4-80.32-45.4-129.23,0-114.1,92.5-206.6,206.6-206.6s206.6,92.5,206.6,206.6c0,48.91-16.99,93.84-45.4,129.23h4.84c13.8,0,25,11.19,25,25,0,6.91-2.8,13.15-7.32,17.68-4.53,4.52-10.78,7.32-17.68,7.32h-34.01c15.09,90.09,71.05,403.03,138.64,521.45h11.28c16.72,0,30.4,13.68,30.4,30.4Z"/><path class="cls-4" d="M329.33,1026.64c79.34-139,138.71-546.04,138.71-546.04h129.99s129.99,0,129.99,0c0,0,63.31,407.04,142.65,546.04H329.33Z"/><path class="cls-3" d="M791.04,480.19c0,6.91-2.8,13.15-7.32,17.68-4.53,4.52-10.78,7.32-17.68,7.32h-332.08c-13.8,0-25-11.19-25-25,0-6.91,2.8-13.15,7.32-17.68,4.53-4.52,10.78-7.32,17.68-7.32h332.08c13.8,0,25,11.19,25,25Z"/><path class="cls-4" d="M438.8,455.19c-28.41-35.39-45.4-80.32-45.4-129.23,0-114.1,92.5-206.6,206.6-206.6s206.6,92.5,206.6,206.6c0,48.91-16.99,93.84-45.4,129.23"/><rect class="cls-2" x="287.65" y="1026.64" width="624.7" height="102.83" rx="30.4" ry="30.4"/></svg>