<?xml version="1.0" encoding="UTF-8"?><svg id="queen" xmlns="http://www.w3.org/2000/svg" viewBox="0 0 1200 1408.68"><defs><style>.cls-1{stroke-width:40px;}.cls-1,.cls-2{fill:#fff;stroke:#000;stroke-miterlimit:10;}.cls-2{stroke-width:25px;}</style></defs><path class="cls-1" d="M329.33,1235.32c79.34-154.53,138.71-607.06,138.71-607.06h129.99s129.99,0,129.99,0c0,0,63.31,452.53,142.65,607.06H329.33Z"/><path class="cls-1" d="M438.8,593.14c-28.41-35.39-109.47-184.62-109.47-233.53,0-114.1,156.57-102.3,270.67-102.3s270.67-22.64,270.67,91.46c0,48.91-81.06,208.98-109.47,244.37,0,0,11.79,25.41-163.17,25.41s-159.23-25.41-159.23-25.41Z"/><path class="cls-2" d="M791.04,618.14c0,6.91-2.8,13.15-7.32,17.68-4.53,4.52-10.78,7.32-17.68,7.32h-332.08c-13.8,0-25-11.19-25-25,0-6.91,2.8-13.15,7.32-17.68,4.53-4.52,10.78-7.32,17.68-7.32h332.08c13.8,0,25,11.19,25,25Z"/><rect class="cls-1" x="287.65" y="1235.32" width="624.7" height="102.83" rx="30.4" ry="30.4"/><path class="cls-2" d="M919.81,212.82l-42.08,85.41c-2.57,5.23-8.9,7.38-14.13,4.81l-15.27-7.53c-4.5-5.42-9.79-10.13-15.76-14.21-11.88-8.15-26.46-13.82-42.86-17.73-14.69-3.5-30.83-5.59-47.81-6.75-47.11-3.26-100.62.49-147.09.49s-100.6-1.98-147.91,3.53c-12.47,1.44-24.49,3.41-35.79,6.09-15.96,3.75-30.51,8.89-42.95,15.9-7.14,4.02-13.59,8.66-19.21,14.01l-22.05,10.86-44.56-90.47c-12.81-4.56-21.78-17.22-20.71-31.83,1.11-15.37,13.57-27.79,28.95-28.87,18.31-1.29,33.56,13.18,33.56,31.21,0,1.68-.13,3.33-.39,4.94l12.98,26.36h.01c.61.13,48.05,10.02,57.51-18.52l-8.8-34.65c-7.86-5.68-12.98-14.93-12.98-25.38,0-17.28,14.01-31.3,31.3-31.3s31.3,14.02,31.3,31.3c0,4.87-1.11,9.47-3.09,13.57l7.65,30.12c.91.36,53.24,21.03,77.77,0v-38.63s-7.84-14.03-7.22-22.71c1.11-15.44,13.67-27.91,29.11-28.92,18.23-1.2,33.4,13.24,33.4,31.23,0,7.79-7.29,20.4-7.29,20.4v26.24s40.84,24.3,69.17,0v-26.24s-7.85-14.04-7.22-22.73c1.13-15.44,13.69-27.9,29.14-28.9,18.23-1.18,33.38,13.25,33.38,31.23,0,7.79-7.3,20.4-7.3,20.4v31.64s40.11,26.51,76.87,10.55l8.55-33.68c-1.98-4.1-3.09-8.7-3.09-13.57,0-18,15.21-32.47,33.49-31.23,15.5,1.06,28.04,13.66,29.03,29.17.72,11.28-4.53,21.38-12.9,27.43l-8.8,34.66s22.02,32.45,52.64,28.42l18.39-37.33c-.58-2.38-.89-4.87-.89-7.43,0-17.59,14.51-31.79,32.21-31.29,16.08.46,29.38,13.32,30.33,29.38.81,13.59-7.07,25.44-18.59,30.55Z"/></svg>