<?xml version="1.0" encoding="UTF-8"?><svg id="rook" xmlns="http://www.w3.org/2000/svg" viewBox="0 0 1200 1408.68"><defs><style>.cls-1{stroke-width:40px;}.cls-1,.cls-2,.cls-3{fill:#fff;stroke:#000;stroke-miterlimit:10;}.cls-2{stroke-width:42.61px;}.cls-3{stroke-width:26.63px;}</style></defs><path class="cls-1" d="M329.33,1235.32c79.34-154.53,138.71-607.06,138.71-607.06h129.99s129.99,0,129.99,0c0,0,63.31,452.53,142.65,607.06H329.33Z"/><path class="cls-2" d="M800.22,278.91v108.76c0,2.66-2.46,4.83-5.48,4.83,0,0-8.57.64-8.57.96v210.16c0,7.34-6.82,13.35-15.15,13.35h-341.22c-8.32,0-15.13-6-15.13-13.34v-210.17c0-.32-10.9-.96-10.9-.96-3.02,0-5.48-2.17-5.48-4.83v-108.76c0-2.66,2.47-4.83,5.48-4.83h86.5c3.01,0,5.48,2.17,5.48,4.83v90.45c0,5.94,5.47,10.76,12.21,10.76h31.52c6.74,0,12.21-4.82,12.21-10.76v-90.45c0-2.66,2.47-4.83,5.48-4.83h86.5c3.01,0,5.48,2.17,5.48,4.83v90.45c0,5.94,5.47,10.76,12.21,10.76h29.2c6.74,0,12.21-4.82,12.21-10.76v-90.45c0-2.66,2.47-4.83,5.48-4.83h86.5c3.01,0,5.48,2.17,5.48,4.83Z"/><path class="cls-3" d="M816.74,618.14c0,6.91-3.18,13.15-8.3,17.68-5.14,4.52-12.23,7.32-20.06,7.32h-376.76c-15.66,0-28.36-11.19-28.36-25,0-6.91,3.18-13.15,8.3-17.68,5.14-4.52,12.23-7.32,20.06-7.32h376.76c15.66,0,28.36,11.19,28.36,25Z"/><rect class="cls-1" x="287.65" y="1235.32" width="624.7" height="102.83" rx="30.4" ry="30.4"/></svg>